# Aspose.3D Wavefront OBJ Exporter
# Copyright 2004-2024 Aspose Pty Ltd.
# File created: 01/03/2025 11:56:22

mtllib material.lib
g Corridor_Pillar_01

#
# object Corridor_Pillar_01
#

v -31.415104 25.797363 -4.2275085
v -31.415104 516.06396 -4.2275085
v 31.099602 516.06396 -4.2275047
v 31.099602 25.797363 -4.2275047
v -25.16425 25.797363 -85.38191
v -31.415104 25.797363 -79.13107
v -25.164246 516.06396 -110.157745
v -31.4151 516.06396 -103.906906
v 25.47377 516.06396 -110.15773
v 31.099594 516.06396 -104.53191
v 25.47377 25.797363 -85.38191
v 31.09961 25.797363 -79.75608
v -31.415104 171.34607 -4.2275085
v -31.415102 171.34607 -53.473114
v -25.164246 171.34607 -59.72397
v 25.47377 171.34607 -59.723957
v 31.099602 171.34607 -54.098137
v 31.099602 171.34607 -4.2275047
v -31.415104 135.65872 -4.2275085
v -31.415104 135.65872 -79.13107
v -25.16425 135.65872 -85.38191
v 25.47377 135.65872 -85.38191
v 31.09961 135.65872 -79.75608
v 31.099602 135.65872 -4.2275047
v 31.099602 405.7989 -4.2275047
v 31.099602 405.7989 -54.098137
v 25.47377 405.7989 -59.723957
v -25.164246 405.7989 -59.72397
v -31.415102 405.7989 -53.473114
v -31.415104 405.7989 -4.2275085
v -50.157745 0 100.157745
v -50.157745 516.0853 100.157745
v 49.84225 516.0853 100.15775
v 49.84225 0 100.15775
v 49.84225 141.41927 100.15775
v -50.157745 141.41927 100.157745
v 49.84225 28.28386 100.15775
v -50.157745 28.283844 100.157745
v 41.44058 516.0853 -13.943836
v 49.84225 516.0853 -5.542164
v 41.44058 141.41927 -13.943867
v 49.84225 138.59116 -5.5421944
v 41.440582 28.28386 -99.842255
v 49.842255 25.45575 -91.44058
v 49.842255 0 -91.44058
v 41.440582 0 -99.842255
v -41.756077 0 -99.842255
v -50.15775 0 -91.44058
v -50.15775 25.45575 -91.44058
v -41.756077 28.283844 -99.842255
v -50.157745 516.0853 -5.5421677
v -41.756077 516.0853 -13.943832
v -50.157745 138.59116 -5.542198
v -41.756077 141.41927 -13.943863
# 54 vertices

vn -1 0 0
vn -0.9956016 0.019261908 -0.0916871
vn -0.9970468 0 -0.076796666
vn -1 0 0
vn 0.9976059 0 -0.06915656
vn 0.99642265 0.017374767 -0.0827043
vn 1 0 0
vn 1 0 0
vn 0 0 1
vn 0 0 1
vn 0 0 1
vn 0 0 1
vn -0.10131009 0.16891944 -0.9804094
vn 0.09220839 0.1694141 -0.981222
vn 0.09949392 0 -0.9950383
vn -0.10922084 0 -0.99401754
vn 3.7064932E-08 1 0
vn 3.7064936E-08 1 0
vn 3.7064932E-08 1 0
vn 3.7064932E-08 1 0
vn 3.7064932E-08 1 0
vn 3.7064932E-08 1 0
vn -0.10922084 0 -0.99401754
vn -0.9970468 0 -0.076796666
vn -0.9956016 0.019261908 -0.0916871
vn -0.10131009 0.16891944 -0.9804094
vn 0 -1 0
vn 0 -1 0
vn 0 -1 0
vn 0 -1 0
vn 0 -1 0
vn 0 -1 0
vn 0.09220839 0.1694141 -0.981222
vn 0.99642265 0.017374767 -0.0827043
vn 0.9976059 0 -0.06915656
vn 0.09949392 0 -0.9950383
vn -0.99128854 -0.05478338 -0.11977474
vn -0.9964143 -0.01059111 -0.08394355
vn -1 0 0
vn -1 0 0
vn -0.11378688 -0.14580894 -0.9827473
vn -0.9964143 -0.01059111 -0.08394355
vn -0.99128854 -0.05478338 -0.11977474
vn -0.08237713 -0.41452953 -0.9062998
vn 0.07486471 -0.414776 -0.90683866
vn 0.10372642 -0.14579271 -0.9838625
vn -0.11378688 -0.14580894 -0.9827473
vn -0.08237713 -0.41452953 -0.9062998
vn 0.07486471 -0.414776 -0.90683866
vn 0.9928597 -0.049616978 -0.10847926
vn 0.9971002 -0.0095259985 -0.07550172
vn 0.10372642 -0.14579271 -0.9838625
vn 1 0 0
vn 0.9971002 -0.0095259985 -0.07550172
vn 0.9928597 -0.049616978 -0.10847926
vn 1 0 0
vn 0 0 1
vn 0 0 1
vn 0 0 1
vn 0 0 1
vn -1 0 0
vn -0.99500364 0.007152237 -0.09958273
vn -0.9956016 0.019261908 -0.0916871
vn -1 0 0
vn -0.10131009 0.16891944 -0.9804094
vn -0.9956016 0.019261908 -0.0916871
vn -0.99500364 0.007152237 -0.09958273
vn -0.11211887 0.096353605 -0.98901236
vn -0.11211887 0.096353605 -0.98901236
vn 0.10217723 0.09624257 -0.99009967
vn 0.09220839 0.1694141 -0.981222
vn -0.10131009 0.16891944 -0.9804094
vn 0.10217723 0.09624257 -0.99009967
vn 0.99595445 0.006437342 -0.08962906
vn 0.99642265 0.017374767 -0.0827043
vn 0.09220839 0.1694141 -0.981222
vn 1 0 0
vn 0.99642265 0.017374767 -0.0827043
vn 0.99595445 0.006437342 -0.08962906
vn 1 0 0
vn 0 0 1
vn 0 0 1
vn 0 0 1
vn 0 0 1
vn 1 0 0
vn 0.99595445 0.006437342 -0.08962906
vn 0.9971002 -0.0095259985 -0.07550172
vn 1 0 0
vn 0.10372642 -0.14579271 -0.9838625
vn 0.9971002 -0.0095259985 -0.07550172
vn 0.99595445 0.006437342 -0.08962906
vn 0.10217723 0.09624257 -0.99009967
vn -0.11378688 -0.14580894 -0.9827473
vn 0.10372642 -0.14579271 -0.9838625
vn 0.10217723 0.09624257 -0.99009967
vn -0.11211887 0.096353605 -0.98901236
vn -0.11211887 0.096353605 -0.98901236
vn -0.99500364 0.007152237 -0.09958273
vn -0.9964143 -0.01059111 -0.08394355
vn -0.11378688 -0.14580894 -0.9827473
vn -1 0 0
vn -0.9964143 -0.01059111 -0.08394355
vn -0.99500364 0.007152237 -0.09958273
vn -1 0 0
vn 0 0 1
vn 0 0 1
vn 0 0 1
vn 0 0 1
vn 0 0 1
vn 0 0 1
vn 0 0 1
vn 0 0 1
vn 0 0 1
vn 0 0 1
vn 0 0 1
vn 0 0 1
vn 0 0 1
vn 0 0 1
vn 0 0 1
vn 0 0 1
vn 0 -1 0
vn 0 -1 0
vn 0 -1 0
vn 0 -1 0
vn 0 -1 0
vn 0 -1 0
vn 0.091649994 8.165872E-08 -0.9957913
vn 0.99730015 5.851373E-09 -0.07343445
vn 0.9985832 0.009202416 -0.052410297
vn 0.10807086 0.17235859 -0.979088
vn 0.10807086 0.17235859 -0.979088
vn 0.9985832 0.009202416 -0.052410297
vn 0.9953959 0.050124627 -0.08169781
vn 0.08059586 0.5177507 -0.8517269
vn 0.08059586 0.5177507 -0.8517269
vn 0.9953959 0.050124627 -0.08169781
vn 0.9991188 0 -0.041971345
vn 0.08720529 0 -0.99619037
vn 0.9953959 0.050124627 -0.08169781
vn 1 0 0
vn 1 0 0
vn 0.9991188 0 -0.041971345
vn 1 0 0
vn 1 0 0
vn 0.9985832 0.009202416 -0.052410297
vn 0.99730015 5.851373E-09 -0.07343445
vn 0.9985832 0.009202416 -0.052410297
vn 1 0 0
vn 1 0 0
vn 0.9953959 0.050124627 -0.08169781
vn 0 1 0
vn 0 1 0
vn 0 1 0
vn 0 1 0
vn 0 1 0
vn 0 1 0
vn -0.08720521 -2.3577224E-08 -0.9961905
vn -0.9991188 -1.1347569E-08 -0.041971277
vn -0.9953959 0.05012464 -0.08169785
vn -0.080595754 0.5177506 -0.85172683
vn -0.080595754 0.5177506 -0.85172683
vn -0.9953959 0.05012464 -0.08169785
vn -0.9985832 0.009202414 -0.052410364
vn -0.1080708 0.17235859 -0.979088
vn -0.99730015 6.028686E-09 -0.07343456
vn -0.091649935 8.188001E-08 -0.9957913
vn -0.1080708 0.17235859 -0.979088
vn -0.9985832 0.009202414 -0.052410364
vn -0.9953959 0.05012464 -0.08169785
vn -0.9991188 -1.1347569E-08 -0.041971277
vn -1 0 2.3711221E-08
vn -1 0 5.5083484E-09
vn -0.99730015 6.028686E-09 -0.07343456
vn -0.9985832 0.009202414 -0.052410364
vn -1 0 -6.989358E-08
vn -1 0 -9.8266405E-08
vn -0.9953959 0.05012464 -0.08169785
vn -1 0 5.5083484E-09
vn -1 0 -6.989358E-08
vn -0.9985832 0.009202414 -0.052410364
vn 0.08059586 0.5177507 -0.8517269
vn 0.08720529 0 -0.99619037
vn -0.08720521 -2.3577224E-08 -0.9961905
vn -0.080595754 0.5177506 -0.85172683
vn 0.091649994 8.165872E-08 -0.9957913
vn 0.10807086 0.17235859 -0.979088
vn -0.1080708 0.17235859 -0.979088
vn -0.091649935 8.188001E-08 -0.9957913
vn 0.08059586 0.5177507 -0.8517269
vn -0.080595754 0.5177506 -0.85172683
vn -0.1080708 0.17235859 -0.979088
vn 0.10807086 0.17235859 -0.979088
# 192 vertex normals

vt 0.7049084 0.93365455 0
vt 0.9775292 0.99065375 0
vt 0.7443892 0.99065363 0
vt 0.9620244 0.8364165 0
vt 0.1137535 0.85192657 0
vt 0.23985639 0.93365455 0
vt 0.9620244 0.85192657 0
vt 0.1137535 0.8364165 0
vt 0.58175397 0.75779843 0
vt 0.3719254 0.99093854 0
vt 0.1137535 0.76544267 0
vt 0.2400217 0.9359086 0
vt 0.2400217 0.8223084 0
vt 0.26333335 0.81282836 0
vt 0.9620247 0.76544255 0
vt 0.47316185 0.8213605 0
vt 0.47316185 0.9359086 0
vt 0.706302 0.8213605 0
vt 0.9075873 0.75751364 0
vt 0.56539285 0.81884503 0
vt 0.7075432 0.8364165 0
vt 0.7075432 0.7654426 0
vt 0.68166584 0.760295 0
vt 0.54310393 0.9359086 0
vt 0.9075873 0.99065375 0
vt 0.9180617 0.75751364 0
vt 0.5862863 0.81884503 0
vt 0.7456537 0.8364165 0
vt 0.74565405 0.7654426 0
vt 0.71396345 0.760295 0
vt 0.5326295 0.9359086 0
vt 0.9180617 0.99065375 0
vt 0.67969525 0.9359086 0
vt 0.77099586 0.99065363 0
vt 0.67969525 0.8213605 0
vt 0.21056038 0.76544267 0
vt 0.21056086 0.8364165 0
vt 0.21056086 0.85192657 0
vt 0.29292956 0.93365455 0
vt -0.16705555 0.9926687 0
vt 1.9111222 0.9975702 0
vt 1.8903282 0.9975702 0
vt -0.14626133 0.9926687 0
vt 1.2179861 0.99375755 0
vt -0.06308502 0.9926687 0
vt 1.8071518 0.9975702 0
vt 1.2179861 0.9975702 0
vt -0.22652155 0.75780743 0
vt -0.16828644 0.7677192 0
vt -0.16828644 0.99375755 0
vt -0.86142266 0.99375755 0
vt -0.8614228 0.7677193 0
vt -0.80318785 0.75780743 0
vt -0.985011 0.781025 0
vt -0.985011 0.7625381 0
vt 1.5034845 0.76253814 0
vt 1.5034845 0.781025 0
vt 1.8284876 0.76253814 0
vt 1.8548017 0.781025 0
vt -0.14749247 0.75780743 0
vt -0.14957178 0.7677193 0
vt -0.14749247 0.99375755 0
vt 0.5248498 0.99375755 0
vt -0.064315975 0.99375755 0
vt -0.06639528 0.7751811 0
vt 0.5248498 0.7751811 0
vt 1.1597509 0.75780743 0
vt -0.985011 0.99877805 0
vt 0.5830849 0.7578073 0
vt 1.9426296 0.9640891 0
vt -0.16705555 0.7666305 0
vt -0.14834082 0.7666305 0
vt 1.8547997 0.96408856 0
vt -0.065164864 0.7740925 0
vt 1.5034828 0.96408904 0
vt -0.985011 0.9640891 0
vt 1.9426296 0.781025 0
vt 0.56539285 0.93365455 0
vt 0.77099586 0.75751364 0
vt 0.7075432 0.85192657 0
vt 0.29292956 0.81884503 0
vt 0.5862863 0.93365455 0
vt 0.7456537 0.85192657 0
vt 0.7443892 0.75751364 0
vt 0.60506564 0.77575576 0
vt 0.97752935 0.75751364 0
vt 0.7049084 0.81884503 0
vt 1.8071518 0.7616201 0
vt 1.8903282 0.7616201 0
vt 1.2179861 0.7616201 0
vt 1.9111222 0.7616201 0
vt 1.5122664 0.99877805 0
vt 1.2179861 0.77518123 0
vt 1.8635821 0.9918194 0
vt 1.942627 0.9918194 0
vt 0.54310393 0.8213605 0
vt 0.26048875 0.7602951 0
vt 0.5326295 0.8213605 0
vt 0.17844701 0.7602951 0
vt 0.4521811 0.81282836 0
vt 0.8973309 0.760295 0
vt 0.3929062 0.75779843 0
vt 0.706302 0.9359086 0
vt 0.3719254 0.77396023 0
vt 0.23985639 0.81884503 0
vt 0.60506564 0.99093866 0
vt 0.52608037 0.7740925 0
vt 0.5260807 0.9926687 0
# 108 texture coords

usemtl Trim_Texture_01
s 1
f 19/82/1 20/27/2 6/87/3 1/1/4
f 12/16/5 23/98/6 24/31/7 4/17/8
f 1/86/9 4/2/10 24/32/11 19/26/12
f 21/28/13 22/29/14 11/15/15 5/4/16
f 7/9/17 8/85/18 2/106/19 3/10/20 10/104/21 9/102/22
f 5/4/23 6/7/24 20/83/25 21/28/26
f 11/100/27 12/16/28 4/17/29 1/12/30 6/13/31 5/14/32
f 22/29/33 23/30/34 12/101/35 11/15/36
f 8/105/37 29/81/38 30/39/39 2/6/40
f 28/37/41 29/38/42 8/5/43 7/8/44
f 9/11/45 27/36/46 28/37/47 7/8/48
f 9/11/49 10/99/50 26/97/51 27/36/52
f 25/33/53 26/35/54 10/18/55 3/103/56
f 30/79/57 25/34/58 3/3/59 2/84/60
f 13/78/61 14/20/62 20/27/63 19/82/64
f 21/28/65 20/83/66 14/80/67 15/21/68
f 15/21/69 16/22/70 22/29/71 21/28/72
f 16/22/73 17/23/74 23/30/75 22/29/76
f 24/31/77 23/98/78 17/96/79 18/24/80
f 19/26/81 24/32/82 18/25/83 13/19/84
f 18/24/85 17/96/86 26/35/87 25/33/88
f 27/36/89 26/97/90 17/23/91 16/22/92
f 28/37/93 27/36/94 16/22/95 15/21/96
f 15/21/97 14/80/98 29/38/99 28/37/100
f 30/39/101 29/81/102 14/20/103 13/78/104
f 13/19/105 18/25/106 25/34/107 30/79/108
f 31/91/109 34/41/110 37/42/111 38/89/112
f 32/90/113 36/88/114 35/46/115 33/47/116
f 38/89/117 37/42/118 35/46/119 36/88/120
f 46/48/121 45/49/122 34/50/123 31/51/124 48/52/125 47/53/126
f 39/54/127 40/55/128 42/56/129 41/57/130
f 41/57/131 42/56/132 44/58/133 43/59/134
f 43/60/135 44/61/136 45/49/137 46/48/138
f 44/61/139 37/62/140 34/50/141 45/49/142
f 33/63/143 35/64/144 42/65/145 40/66/146
f 42/65/147 35/64/148 37/62/149 44/61/150
f 52/67/151 51/93/152 32/44/153 33/63/154 40/66/155 39/69/156
f 47/70/157 48/95/158 49/94/159 50/73/160
f 50/73/161 49/94/162 53/92/163 54/75/164
f 51/68/165 52/76/166 54/75/167 53/92/168
f 49/72/169 48/71/170 31/40/171 38/43/172
f 51/107/173 53/74/174 36/45/175 32/108/176
f 49/72/177 38/43/178 36/45/179 53/74/180
f 43/59/181 46/77/182 47/70/183 50/73/184
f 39/54/185 41/57/186 54/75/187 52/76/188
f 43/59/189 50/73/190 54/75/191 41/57/192
#46 polygons

