# Aspose.3D Wavefront OBJ Exporter
# Copyright 2004-2024 Aspose Pty Ltd.
# File created: 01/03/2025 12:22:18

mtllib material.lib
g Corridor_Wall_Side

#
# object Corridor_Wall_Side
#

v -100 0 50
v 100 0 50
v -100 100 -50
v 100 100 -50
v -100 0 -50
v 100 0 -50
v -100 40 50
v -100 30 -50
v 100 30 -50
v 100 40 50
v -100 70 0
v 100 70 0
v 100 44.481255 42.531242
v -100 44.481255 42.531242
v -100 51 -50
v 100 51 -50
v -100 98.518745 -47.531242
v 100 98.518745 -47.531242
v 100 50.600002 -33
v 100 32 -30
v 100 0 -30
v -100 0 -30
v -100 32 -30
v -100 50.600002 -33
# 24 vertices

vn 0 0 1
vn 0 0 1
vn 0 0 1
vn 0 0 1
vn 0 0.857493 0.5144958
vn 0 0.857493 0.5144958
vn 0 0.8574929 0.5144958
vn 0 0.8574929 0.5144958
vn 0 0 -1
vn 0 0 -1
vn 0 0 -1
vn 0 0 -1
vn 0 -1 0
vn 0 -1 0
vn 0 -1 0
vn 0 -1 0
vn 1 0 0
vn 0.99999994 0 0
vn 1 0 0
vn 1 0 0
vn -1 0 0
vn -0.99999994 0 0
vn -1 0 0
vn -1 0 0
vn -1 0 0
vn -1 0 0
vn -1 -6.5216432E-09 0
vn -1 -3.714669E-08 0
vn 0 0 -0.99999994
vn 0 0 -0.99999994
vn 0 0 -1
vn 0 0 -1
vn 1 4.8866927E-08 0
vn 1 1.9645361E-07 0
vn 1 0 0
vn 1 -3.7146688E-08 0
vn 0 0.857493 0.5144958
vn 0 0.857493 0.5144958
vn 0 0.857493 0.5144958
vn 0 0.857493 0.5144958
vn 0 0.8574929 0.5144958
vn 0 0.8574929 0.5144958
vn 0 0.857493 0.5144958
vn 0 0.857493 0.5144958
vn -1 -3.714669E-08 0
vn -1 -6.5216432E-09 0
vn -1 -3.0368458E-08 0
vn -1 0 0
vn 0 0 -1
vn 0 0 -1
vn 0 0 -0.99999994
vn 0 0 -0.99999994
vn 1 -3.036846E-08 0
vn 1 4.8866927E-08 0
vn 1 -3.7146688E-08 0
vn 1 0 0
vn 0 0.8574929 0.5144958
vn 0 0.8574929 0.5144958
vn 0 0.8574929 0.5144958
vn 0 0.8574929 0.5144958
vn 1 2.0262733E-07 0
vn 1 4.8866927E-08 0
vn 1 -3.036846E-08 0
vn 0.99999994 0 0
vn 1 0 0
vn 1 1.9645361E-07 0
vn 1 4.8866927E-08 0
vn 1 2.0262733E-07 0
vn 1 0 0
vn 0.99999994 0 0
vn 1 0 0
vn 1 0 0
vn 0 -1 0
vn 0 -1 0
vn 0 -1 0
vn 0 -1 0
vn -1 0 0
vn -0.99999994 0 0
vn -1 0 0
vn -1 0 0
vn -1 -6.5216432E-09 0
vn -1 0 0
vn -1 0 0
vn -0.99999994 0 0
vn -1 -3.0368458E-08 0
vn -1 -6.5216432E-09 0
vn -0.99999994 0 0
vn -1 0 0
# 88 vertex normals

vt 0.12644705 0.76122385 0
vt 0.8735529 0.76122385 0
vt 0.38316327 0.7581714 0
vt 0.9992355 0.87825227 0
vt 0.38316327 0.7581714 0
vt 0.6168367 0.99184483 0
vt 0.38316327 0.99184483 0
vt 0.6168367 0.99184483 0
vt 1.6206589 0.76122385 0
vt 0.875 0.93924844 0
vt -0.6206589 0.76122385 0
vt 0.125 0.93924844 0
vt 0.375 0.76424843 0
vt 0.125 0.76424843 0
vt 0.38316327 0.92174274 0
vt 0.6168367 0.92174274 0
vt 1.6206589 0.9853556 0
vt 0.8735529 0.9853556 0
vt 0.0007645786 0.8544963 0
vt 0.12644705 0.9853556 0
vt -0.6206589 0.9853556 0
vt 0.875 0.76424843 0
vt 0.9992355 0.8544963 0
vt 0.625 0.76424843 0
vt 0.6168367 0.7581714 0
vt 0.38316327 0.99184483 0
vt 0.6168367 0.7581714 0
vt 0.0007648468 0.87825227 0
vt -0.0040897727 0.89759034 0
vt 0.25 0.85174847 0
vt 1.0040901 0.89759034 0
vt 0.75 0.85174847 0
vt 1.0040901 0.99932146 0
vt 0.6625 0.7904985 0
vt -0.004089892 0.99932146 0
vt 0.33749998 0.7904985 0
vt 0.125 0.8167485 0
vt 0.38316327 0.87267137 0
vt 0.6168367 0.87267137 0
vt 0.875 0.8167485 0
vt -0.004089713 0.75101906 0
vt 0.15 0.92174846 0
vt 1.0040901 0.75101876 0
vt 0.84999996 0.9217484 0
vt 0.8325 0.8114985 0
vt 1.4712378 0.9853556 0
vt 0.825 0.76424843 0
vt 0.6168367 0.8049061 0
vt 1.4712378 0.7612239 0
vt 0.38316327 0.8049061 0
vt -0.4712377 0.76122385 0
vt -0.4712377 0.9853556 0
vt 0.175 0.76424843 0
vt 0.16749999 0.8114985 0
# 54 texture coords

usemtl Trim_Texture_01_Flat
s 1
f 1/1/1 2/2/2 10/18/3 7/20/4
f 4/4/5 3/28/6 17/41/7 18/43/8
f 8/15/9 9/16/10 6/6/11 5/26/12
f 5/5/13 6/25/14 21/48/15 22/50/16
f 20/46/17 21/49/18 6/9/19 9/17/20
f 5/11/21 22/51/22 23/52/23 8/21/24
f 8/14/25 23/53/26 24/54/27 15/37/28
f 15/38/29 16/39/30 9/16/31 8/15/32
f 19/45/33 20/47/34 9/22/35 16/40/36
f 13/33/37 14/35/38 7/19/39 10/23/40
f 15/37/45 24/54/46 17/42/47 3/12/48
f 3/3/49 4/27/50 16/39/51 15/38/52
f 18/44/53 19/45/54 16/40/55 4/10/56
f 13/34/61 19/45/62 18/44/63 12/32/64
f 10/24/65 20/47/66 19/45/67 13/34/68
f 2/2/69 21/49/70 20/46/71 10/18/72
f 22/50/73 21/48/74 2/8/75 1/7/76
f 23/52/77 22/51/78 1/1/79 7/20/80
f 24/54/81 23/53/82 7/13/83 14/36/84
f 17/42/85 24/54/86 14/36/87 11/30/88
#22 polygons

usemtl Trim_Texture_01
s 2
f 12/31/41 11/29/42 14/35/43 13/33/44
f 18/43/57 17/41/58 11/29/59 12/31/60
#22 polygons

