# Aspose.3D Wavefront OBJ Exporter
# Copyright 2004-2024 Aspose Pty Ltd.
# File created: 11/15/2024 08:03:58

mtllib material.lib
g Corridor_FloorTile_01

#
# object Corridor_FloorTile_01
#

v -100 -1 -100
v 0 -1 -100
v -100 -1 0
v 0 -1 0
v -0.2016859 -1 0
v -0.201684 -1 -100
v -100.000015 -1 -0.20004825
v -1.2016883 0 -1.2000363
v 1.1444092E-05 -1 -0.20004825
v -100 -1 -60.080013
v -1.2016883 0 -60.08001
v 0 -1 -60.080013
v -100 -1 -68.06401
v -1.2016883 0 -68.06401
v 0 -1 -68.06401
v -60.080685 -1 0
v -60.080685 0 -1.2000363
v -60.080685 0 -60.080013
v -60.080685 0 -68.06401
v -60.080685 -1 -100
v -68.064545 -1 0
v -68.06454 0 -1.2000363
v -68.064545 0 -60.080013
v -68.064545 0 -68.06401
v -68.064545 -1 -100
v -96 -1 -62.22541
v -68.064545 0 -60.159405
v -60.08069 0 -60.159405
v -1.2016883 0 -60.1594
v -96 -1 -65.916595
v -68.064545 0 -67.982605
v -60.080685 0 -67.982605
v -1.2016883 0 -67.98261
v -67.98519 0 -5.2000365
v -67.98518 0 -60.080017
v -67.98518 0 -60.15941
v -67.98518 0 -67.98261
v -67.98518 0 -68.06402
v -60.163853 0 -5.2000365
v -60.163857 0 -60.080013
v -60.16386 0 -60.159405
v -60.163857 0 -67.982605
v -60.163857 0 -68.06401
v -100.000015 -1 -99.81253
v -68.06454 0 -98.81254
v -67.98519 0 -98.81254
v -60.163853 0 -98.81254
v -60.080685 0 -98.81254
v -1.2016883 0 -98.81254
v 1.1444092E-05 -1 -99.81253
v -99.81534 -1 0
v -98.815346 0 -1.2000363
v -98.815346 0 -60.08001
v -94 0 -60.1594
v -94 0 -67.98261
v -98.815346 0 -68.06401
v -98.815346 0 -98.81253
v -99.81534 -1 -100
v -65.870445 0 -5.2000365
v -62.270832 0 -5.200205
v -62.253326 0 -60.080017
v -62.253304 0 -60.15941
v -62.250854 0 -67.982605
v -62.250828 0 -68.06401
v -62.241188 0 -98.81254
v -62.240818 0 -100
v -66.09816 0 -60.080017
v -66.09848 0 -60.159405
v -66.13036 0 -67.982605
v -66.13069 0 -68.06401
v -65.91749 4.440892E-16 -98.84175
v -65.922325 4.440892E-16 -100
v -65.86913 -1 -2.917755
v -62.279846 -1 -2.9178512
v -65.885895 -0.03159914 0
v -62.26312 -0.03155007 0
v -65.871086 -0.15395886 -1.9327796
v -62.277897 -0.15389627 -1.9328054
v -97 0 -62.22541
v -97 0 -65.916595
v -100 0 -62.22541
v -100 0 -65.916595
v -94 0 -65.89571
v -93.99772 0 -62.254124
v -68.064545 0 -62.25412
v -67.98518 0 -62.254128
v -66.10702 0 -62.25412
v -62.252647 0 -62.254128
v -60.163857 0 -62.25412
v -60.08069 0 -62.25412
v -1.2016883 0 -62.25412
v -68.064545 0 -65.89571
v -67.98518 0 -65.89571
v -66.12186 0 -65.89571
v -62.251507 0 -65.89571
v -60.163857 0 -65.89571
v -60.08069 0 -65.89571
v -1.2016883 0 -65.895706
v 0 0 -65.895706
v 0 0 -62.25412
# 100 vertices

vn -0.5458346 0.6426029 -0.5377044
vn -0.5458346 0.642603 -0.5377044
vn -0.5458346 0.6426029 -0.5377044
vn -0.54583466 0.642603 -0.53770447
vn 0.5202825 0.64495784 -0.5597637
vn 0.52028257 0.64495784 -0.55976367
vn 0.52028257 0.64495784 -0.5597638
vn 0.52028257 0.64495784 -0.5597637
vn -0.5619904 0.64420825 0.5188088
vn -0.5619903 0.64420825 0.5188088
vn -0.5619903 0.6442082 0.5188088
vn -0.5619904 0.6442082 0.5188087
vn 0.5367871 0.6472627 0.54121226
vn 0.5367871 0.64726263 0.54121226
vn 0.5367871 0.64726263 0.54121226
vn 0.5367871 0.64726263 0.54121226
vn -0.8603902 0.5096359 -1.1054665E-07
vn -0.8603902 0.5096359 -1.1054664E-07
vn -0.8603902 0.5096359 -1.1054665E-07
vn -0.8603901 0.50963587 -1.1054662E-07
vn 0.8571725 0.51502955 -8.259991E-08
vn 0.8571725 0.5150295 -8.259992E-08
vn 0.8571724 0.51502955 -8.259991E-08
vn 0.8571724 0.5150295 -8.259992E-08
vn -0.20119746 0.5712023 0.79576844
vn -0.20119749 0.57120234 0.79576844
vn -0.20119748 0.5712024 0.7957685
vn -0.20119748 0.5712024 0.7957685
vn 0.8571523 0.51506317 0
vn 0.8571522 0.5150632 0
vn 0.8571523 0.5150632 0
vn 0 0.5145072 0.85748607
vn 0 0.5145072 0.85748607
vn 0 0.5145072 0.85748607
vn 0 0.5145072 0.85748607
vn 0 1 0
vn 0 1 0
vn 0 1 0
vn 0 1 0
vn 0 1 0
vn 0 1 0
vn 0 1 0
vn 0 1 0
vn 0 0.5105266 -0.85986197
vn 0 0.5105266 -0.85986197
vn 0 0.51052666 -0.8598619
vn 0 0.5105266 -0.8598619
vn 0.7510493 0.61231726 0.24696667
vn 0.7510494 0.61231726 0.2469667
vn 0.75104934 0.6123172 0.24696669
vn 0.75104934 0.6123172 0.24696667
vn 0 0.99999994 0
vn 0 1 0
vn 0 1 0
vn 0 1 0
vn 0 1 0
vn 0 1 0
vn 0 1 0
vn 0 1 0
vn 0 0.5105387 -0.8598547
vn 0 0.51053876 -0.85985476
vn 0 0.5105387 -0.85985476
vn -0.20088157 0.5710501 -0.7959576
vn -0.20088154 0.5710501 -0.79595757
vn -0.20088157 0.5710501 -0.7959576
vn -0.20088154 0.57105005 -0.7959575
vn 0 1 0
vn 0 0.99999994 0
vn 0 1 0
vn 0 0.99999994 0
vn 0 0.99999994 0
vn 0 0.99999994 0
vn 0 1 0
vn 0 1 0
vn 0.85717356 0.5150277 0
vn 0.8571735 0.51502764 0
vn 0.85717344 0.5150277 0
vn -0.70710164 0.707112 0
vn -0.7071016 0.707112 0
vn -0.70710164 0.70711195 0
vn 0 1 0
vn 0 1 0
vn 0 1 0
vn 0 1 0
vn 0 1 0
vn 0 1 0
vn 0 1 0
vn 0 1 0
vn 0.5941773 0.72793806 -0.34213957
vn 0.5941773 0.72793806 -0.34213957
vn 0.5941773 0.7279381 -0.34213957
vn 0.5941773 0.7279381 -0.34213957
vn 0 0.752086 0.659065
vn 0 0.7520859 0.659065
vn 0 0.752086 0.659065
vn 0 1 0
vn 0 0.99999994 0
vn 0 1 0
vn 0 1 0
vn 0 1 0
vn 0 1 0
vn 0 0.99999994 0
vn 0 1 0
vn 0 1 0
vn 0 1 0
vn 0 1 0
vn 0 1 0
vn 0 1 0
vn 0 0.99999994 0
vn 0 0.99999994 0
vn 0 1 0
vn -0.34622043 0.7199905 -0.60145247
vn -0.34622043 0.71999055 -0.60145247
vn -0.34622043 0.71999055 -0.60145247
vn -0.34622043 0.7199906 -0.60145247
vn -0.7505753 0.6126308 0.24762896
vn -0.7505753 0.61263084 0.24762894
vn -0.7505754 0.61263084 0.24762896
vn -0.7505753 0.61263084 0.24762894
vn 0 1 0
vn 0 1 0
vn 0 1 0
vn 0 1 0
vn 0 1 0
vn 0 1 0
vn 0 1 0
vn 0 1 0
vn 0 1 0
vn 0 1 0
vn 0 1 0
vn 0 1 0
vn 0 1 0
vn 0 1 0
vn 0 1 0
vn 0 1 0
vn 0 0.51051134 -0.859871
vn 0 0.5105114 -0.859871
vn 0 0.51051134 -0.8598709
vn -0.8603896 0.50963694 2.1006599E-07
vn -0.8603896 0.50963694 2.1006602E-07
vn -0.8603896 0.5096369 2.10066E-07
vn -0.8603896 0.50963694 2.10066E-07
vn 0 0.99999994 0
vn 0 0.99999994 0
vn 0 1 0
vn 0 0.99999994 0
vn -2.2634833E-16 1 1.3651476E-17
vn -2.2634833E-16 1 1.3651478E-17
vn -2.2634835E-16 1 1.3651478E-17
vn -2.2634833E-16 1 1.3651478E-17
vn 0 1 0
vn 0 1 0
vn 0 1 0
vn 0 1 0
vn 0 1 0
vn 0 1 0
vn 0 1 0
vn 0 1 0
vn 0.8571725 0.5150296 1.5696041E-07
vn 0.8571724 0.51502955 1.569604E-07
vn 0.8571724 0.51502955 1.569604E-07
vn 0.8571724 0.51502955 1.569604E-07
vn 0 0.51450706 0.85748607
vn 0 0.5145071 0.8574862
vn 0 0.51450706 0.8574861
vn 0 0.5145071 0.8574862
vn 0 1 0
vn 0 1 0
vn 0 1 0
vn 0 1 0
vn 0 1 0
vn 0 1 0
vn 0 1 0
vn 0 1 0
vn 0 0.99999994 0
vn 0 1 0
vn 0 1 0
vn 0 1 0
vn 0 1 0
vn 0 1 0
vn 0 0.99999994 0
vn 0 1 0
vn 0 1 0
vn 0 1 0
vn 0 1 0
vn 0 0.99999994 0
vn 0 0.5105278 -0.8598613
vn 0 0.5105278 -0.8598613
vn 0 0.51052773 -0.85986125
vn 0 0.5105278 -0.85986125
vn 2.4305622E-05 0.7520914 0.6590589
vn 2.4305617E-05 0.75209135 0.65905887
vn 2.4305622E-05 0.7520914 0.6590589
vn 2.4305618E-05 0.75209135 0.65905887
vn -5.279998E-05 0.75209606 0.6590535
vn -5.2799976E-05 0.75209606 0.6590535
vn -5.2799984E-05 0.75209606 0.6590535
vn 0 0.99999994 0
vn 0 1 0
vn 0 1 0
vn 0 1 0
vn 0 1 0
vn 0 1 0
vn 0 1 0
vn 0 1 0
vn 0 1 0
vn 0 0.99999994 0
vn 0 0.99999994 0
vn 0 1 0
vn 0 1 0
vn 0 1 0
vn 0 1 0
vn 0 1 0
vn 0 1 0
vn 0 1 0
vn 0 1 0
vn 0 1 0
vn 0.342028 0.7246636 -0.59823036
vn 0.342028 0.7246636 -0.59823036
vn 0.34202802 0.7246637 -0.59823036
vn 0.34202796 0.7246636 -0.5982303
vn 0 1 0
vn 0 1 0
vn 0 1 0
vn 0 1 0
vn 0 1 0
vn 0 1 0
vn 0 1 0
vn 0 1 0
vn 0 1 0
vn 0 1 0
vn 0 1 0
vn 0 1 0
vn 0 1 0
vn 0 1 0
vn 0 1 0
vn 0 1 0
vn 1.1748612E-16 1 1.486128E-17
vn 1.174861E-16 1 1.486128E-17
vn 1.1748612E-16 1 1.486128E-17
vn 1.174861E-16 1 1.486128E-17
vn 2.414258E-16 1 -4.5975624E-19
vn 2.4142583E-16 1 -4.5975624E-19
vn 2.4142583E-16 1 -4.597563E-19
vn 2.4142583E-16 1 -4.597563E-19
vn -2.3463808E-05 0.50308084 -0.8642393
vn -2.3463806E-05 0.50308084 -0.86423934
vn -2.3463808E-05 0.50308084 -0.8642393
vn -2.3463806E-05 0.50308084 -0.8642394
vn -0.7493574 0.5496932 -0.36918926
vn -0.7493574 0.54969317 -0.36918923
vn -0.7493575 0.5496932 -0.36918923
vn -0.74935746 0.5496932 -0.3691893
vn 0.7488121 0.5502081 -0.36952886
vn 0.7488121 0.5502081 -0.36952886
vn 0.748812 0.5502081 -0.36952886
vn 0.748812 0.55020803 -0.3695288
vn -3.1152038E-05 0.99208033 -0.12560466
vn -3.115204E-05 0.9920804 -0.12560466
vn -3.115204E-05 0.9920804 -0.12560466
vn -3.1152038E-05 0.99208033 -0.12560464
vn 0.8944269 0.44721437 0
vn 0.8944269 0.44721437 0
vn 0.8944269 0.44721437 0
vn 0.8944269 0.44721437 0
vn 0 1 0
vn 0 1 0
vn 0 1 0
vn 0 1 0
vn 0.25281405 0.5056263 0.82488006
vn 0.25281405 0.5056263 0.82488
vn 0.25281405 0.50562626 0.82488006
vn 0.25281402 0.50562626 0.82488
vn 0.25297526 0.5059505 -0.8246318
vn 0.25297526 0.5059505 -0.8246318
vn 0.25297526 0.5059505 -0.82463175
vn 0.25297526 0.5059505 -0.8246318
vn -0.70690453 0.70730907 0.00021991428
vn -0.70690453 0.70730907 0.00021991428
vn -0.7069045 0.707309 0.00021991426
vn -0.7069046 0.70730907 0.00021991428
vn -0.70670724 0.70750564 -0.00076961494
vn -0.7067073 0.7075057 -0.0007696149
vn -0.70670724 0.70750564 -0.0007696149
vn 0 1 0
vn 0 1 0
vn 0 1 0
vn 0 1 0
vn 0 1 0
vn 0 1 0
vn 0 1 0
vn 0 1 0
vn 0 1 0
vn 0 1 0
vn 0 1 0
vn 0 1 0
vn 0 1 0
vn 0 1 0
vn 0 1 0
vn 0 1 0
vn 0 1 0
vn 0 0.99999994 0
vn 0 1 0
vn 0 1 0
vn 0 0.99999994 0
vn 0 1 0
vn 0 1 0
vn 0 0.99999994 0
vn 0 1 0
vn 0 1 0
vn 0 1 0
vn 0 1 0
vn 0 1 0
vn 0 1 0
vn 0 1 0
vn 0 1 0
vn 0 0.99999994 0
vn 0 1 0
vn 0 0.99999994 0
vn 0 0.99999994 0
vn 0 1 0
vn 0 1 0
vn 0 1 0
vn 0 1 0
vn 0 1 0
vn 0 1 0
vn 0 1 0
vn 0 1 0
vn 0 1 0
vn 0 1 0
vn 0 1 0
vn 0 1 0
vn 0 1 0
vn 0 1 0
vn 0 1 0
vn 0 1 0
vn 0 1 0
vn 0 0.99999994 0
vn 0 1 0
vn 0 1 0
vn 0 1 0
vn 0 1 0
vn 0 1 0
vn 0 1 0
vn 0.59460735 0.7280701 0.34111023
vn 0.59460735 0.7280701 0.34111023
vn 0.5946073 0.72806996 0.3411102
vn 0.59460735 0.72807 0.34111023
# 348 vertex normals

vt 0.59973496 0.09967202 0
vt 0.5989223 0.09867561 0
vt 0.59992146 0.09948826 0
vt 0.59992146 0.09967196 0
vt 0.59992146 0.00038220733 0
vt 0.5989223 0.0011949427 0
vt 0.59973496 0.0001815334 0
vt 0.59992146 0.00018155202 0
vt 0.50043106 0.09967196 0
vt 0.50043106 0.09948826 0
vt 0.5014428 0.09867561 0
vt 0.5006301 0.09967202 0
vt 0.5006301 0.0001815334 0
vt 0.5014428 0.0011949427 0
vt 0.50043106 0.00038220733 0
vt 0.50043106 0.00018155202 0
vt 0.5602426 0.09867561 0
vt 0.560205 0.09967196 0
vt 0.560205 0.00018155202 0
vt 0.5602426 0.0011949427 0
vt 0.5660117 0.09569234 0
vt 0.56813437 0.093866825 0
vt 0.56821567 0.09867561 0
vt 0.56814826 0.09967196 0
vt 0.56814826 0.00018155202 0
vt 0.56821567 0.0011949427 0
vt 0.56813437 0.0011949427 0
vt 0.5014428 0.059993684 0
vt 0.50043106 0.059956074 0
vt 0.5602426 0.059993684 0
vt 0.56821567 0.059993684 0
vt 0.56813437 0.059993684 0
vt 0.59992146 0.059956074 0
vt 0.5989223 0.059993684 0
vt 0.5054374 0.067887425 0
vt 0.5014428 0.0679667 0
vt 0.50043106 0.06789929 0
vt 0.5033339 0.065715015 0
vt 0.5602426 0.0679667 0
vt 0.5602426 0.067887425 0
vt 0.56821567 0.0679667 0
vt 0.56813437 0.0679667 0
vt 0.56813437 0.067887425 0
vt 0.56821567 0.067887425 0
vt 0.59992146 0.06789929 0
vt 0.5989223 0.0679667 0
vt 0.5989223 0.067887425 0
vt 0.56032187 0.093866825 0
vt 0.5623394 0.09569234 0
vt 0.56032187 0.067887425 0
vt 0.56032187 0.0679667 0
vt 0.56032187 0.0011949427 0
vt 0.56032187 0.059993684 0
vt 0.56605035 0.093866825 0
vt 0.56605035 0.0679667 0
vt 0.56605035 0.067887425 0
vt 0.56605035 0.059993684 0
vt 0.56605035 0.0011949427 0
vt 0.56605035 -5.0850213E-06 0
vt 0.5054374 0.06577557 0
vt 0.5602426 0.066003025 0
vt 0.56032187 0.06600332 0
vt 0.56605035 0.06602663 0
vt 0.56813437 0.06603515 0
vt 0.56821567 0.06603545 0
vt 0.59895146 0.06582254 0
vt 0.60010815 0.06582743 0
vt 0.5054374 0.060076773 0
vt 0.50333405 0.06214404 0
vt 0.5602426 0.060076773 0
vt 0.56032187 0.060076773 0
vt 0.56813437 0.060076773 0
vt 0.56605035 0.060076773 0
vt 0.56821567 0.060076773 0
vt 0.5989223 0.060076773 0
vt 0.5054375 0.062180877 0
vt 0.5602426 0.062163413 0
vt 0.56032187 0.062163353 0
vt 0.56605035 0.062161565 0
vt 0.56813437 0.06216091 0
vt 0.56821567 0.06216091 0
vt 0.5989223 0.062151253 0
vt 0.60010815 0.062150896 0
vt 0.5022023 0.06576705 0
vt 0.5022023 0.062180817 0
vt 0.50025034 0.0657891 0
vt 0.50025034 0.062171698 0
vt 0.56607115 0.09686273 0
vt 0.562385 0.09686273 0
vt 0.56607115 0.09985858 0
vt 0.562385 0.09985858 0
vt 0.5624137 0.0938645 0
vt 0.5624137 0.0679667 0
vt 0.5624137 0.067887425 0
vt 0.5624137 0.066011846 0
vt 0.5624137 0.062162697 0
vt 0.5624137 0.060076773 0
vt 0.5624137 0.059993684 0
vt 0.5624137 0.0011949427 0
vt 0.5624137 -5.0850213E-06 0
# 100 texture coords

usemtl Trim_Texture_01
s 1
f 44/1/1 57/2/2 58/3/3 1/4/4
f 6/5/5 49/6/6 50/7/7 2/8/8
f 3/9/9 51/10/10 52/11/11 7/12/12
f 9/13/13 8/14/14 5/15/15 4/16/16
f 7/12/17 52/11/18 53/17/19 10/18/20
f 12/19/21 11/20/22 8/14/23 9/13/24
f 30/21/25 55/22/26 56/23/27 13/24/28
f 15/25/29 14/26/30 33/27/31
f 17/28/32 16/29/33 5/15/34 8/14/35
f 18/30/36 17/28/37 8/14/38 11/20/39
f 19/31/40 32/32/41 33/27/42 14/26/43
f 20/33/44 48/34/45 49/6/46 6/5/47
f 34/35/48 22/36/49 21/37/50 73/38/51
f 23/39/52 22/36/53 34/35/54 35/40/55
f 24/41/56 31/42/57 37/43/58 38/44/59
f 25/45/60 45/46/61 46/47/62
f 10/18/63 53/17/64 54/48/65 26/49/66
f 35/40/67 36/50/68 27/51/69 23/39/70
f 29/52/71 28/53/72 18/30/73 11/20/74
f 12/19/75 29/52/76 11/20/77
f 30/21/78 83/54/79 55/22/80
f 92/55/81 93/56/82 37/43/83 31/42/84
f 33/27/85 32/32/86 97/57/87 98/58/88
f 15/25/89 33/27/90 98/58/91 99/59/92
f 59/60/93 34/35/94 73/38/95
f 35/40/96 34/35/97 59/60/98 67/61/99
f 67/61/100 68/62/101 36/50/102 35/40/103
f 93/56/104 94/63/105 69/64/106 37/43/107
f 38/44/108 37/43/109 69/64/110 70/65/111
f 25/45/112 46/47/113 71/66/114 72/67/115
f 16/29/116 17/28/117 39/68/118 74/69/119
f 40/70/120 39/68/121 17/28/122 18/30/123
f 28/53/124 41/71/125 40/70/126 18/30/127
f 32/32/128 42/72/129 96/73/130 97/57/131
f 43/74/132 42/72/133 32/32/134 19/31/135
f 20/33/136 47/75/137 48/34/138
f 13/24/139 56/23/140 57/2/141 44/1/142
f 46/47/143 45/46/144 24/41/145 38/44/146
f 70/65/147 71/66/148 46/47/149 38/44/150
f 48/34/151 47/75/152 43/74/153 19/31/154
f 49/6/155 48/34/156 19/31/157 14/26/158
f 50/7/159 49/6/160 14/26/161 15/25/162
f 52/11/163 51/10/164 21/37/165 22/36/166
f 53/17/167 52/11/168 22/36/169 23/39/170
f 54/48/171 53/17/172 23/39/173 27/51/174
f 55/22/175 83/54/176 92/55/177 31/42/178
f 56/23/179 55/22/180 31/42/181 24/41/182
f 57/2/183 56/23/184 24/41/185 45/46/186
f 58/3/187 57/2/188 45/46/189 25/45/190
f 74/69/191 60/76/192 59/60/193 73/38/194
f 39/68/195 60/76/196 74/69/197
f 61/77/198 60/76/199 39/68/200 40/70/201
f 40/70/202 41/71/203 62/78/204 61/77/205
f 95/79/206 96/73/207 42/72/208 63/80/209
f 64/81/210 63/80/211 42/72/212 43/74/213
f 47/75/214 65/82/215 64/81/216 43/74/217
f 66/83/218 65/82/219 47/75/220 20/33/221
f 67/61/222 59/60/223 60/76/224 61/77/225
f 61/77/226 62/78/227 68/62/228 67/61/229
f 94/63/230 95/79/231 63/80/232 69/64/233
f 70/65/234 69/64/235 63/80/236 64/81/237
f 64/81/238 65/82/239 71/66/240 70/65/241
f 72/67/242 71/66/243 65/82/244 66/83/245
f 74/69/246 73/38/247 77/84/248 78/85/249
f 73/38/250 21/37/251 75/86/252 77/84/253
f 16/29/254 74/69/255 78/85/256 76/87/257
f 75/86/258 76/87/259 78/85/260 77/84/261
f 26/49/262 30/21/263 80/88/264 79/89/265
f 79/89/266 80/88/267 82/90/268 81/91/269
f 79/89/270 81/91/271 10/18/272 26/49/273
f 82/90/274 80/88/275 30/21/276 13/24/277
f 26/49/278 84/92/279 83/54/280 30/21/281
f 26/49/282 54/48/283 84/92/284
f 85/93/285 84/92/286 54/48/287 27/51/288
f 36/50/289 86/94/290 85/93/291 27/51/292
f 68/62/293 87/95/294 86/94/295 36/50/296
f 62/78/297 88/96/298 87/95/299 68/62/300
f 41/71/301 89/97/302 88/96/303 62/78/304
f 90/98/305 89/97/306 41/71/307 28/53/308
f 91/99/309 90/98/310 28/53/311 29/52/312
f 92/55/313 83/54/314 84/92/315 85/93/316
f 85/93/317 86/94/318 93/56/319 92/55/320
f 86/94/321 87/95/322 94/63/323 93/56/324
f 87/95/325 88/96/326 95/79/327 94/63/328
f 88/96/329 89/97/330 96/73/331 95/79/332
f 97/57/333 96/73/334 89/97/335 90/98/336
f 98/58/337 97/57/338 90/98/339 91/99/340
f 99/59/341 98/58/342 91/99/343 100/100/344
f 100/100/345 91/99/346 29/52/347 12/19/348
#89 polygons

