# Aspose.3D Wavefront OBJ Exporter
# Copyright 2004-2024 Aspose Pty Ltd.
# File created: 01/04/2025 12:37:37

mtllib material.lib
g Room_LootCylinder

#
# object Room_LootCylinder
#

v -7.4883614 60.877586 12.479151
v -12.479774 60.877586 7.4877415
v -12.479774 61.596222 7.4877415
v -7.4883614 61.596222 12.479151
v -12.479774 60.87761 -7.4889836
v -7.4883614 60.87761 -12.480393
v -7.4883614 61.596237 -12.480393
v -12.479774 61.596237 -7.4889836
v 12.479773 61.596237 -7.4889836
v 7.4883633 61.596237 -12.480393
v 7.4883633 60.87761 -12.480393
v 12.479773 60.87761 -7.4889836
v 12.479773 60.877586 7.4877415
v 7.4883633 60.877586 12.479151
v 7.4883633 61.596222 12.479151
v 12.479773 61.596222 7.4877415
v -15 62.634357 10.007971
v -10.008591 62.634357 14.99938
v -8.97047 61.596222 13.961258
v -13.96188 61.596222 8.969849
v 10.008593 62.634357 14.99938
v 15.000002 62.634357 10.007971
v 13.96188 61.596222 8.969849
v 8.97047 61.596222 13.961258
v -10.008591 62.63436 -15.000623
v -15 62.63436 -10.009213
v -13.96188 61.596237 -8.97109
v -8.97047 61.596237 -13.962501
v 15.000002 62.63436 -10.009213
v 10.008593 62.63436 -15.000623
v 8.97047 61.596237 -13.962501
v 13.96188 61.596237 -8.97109
v -10.008591 60.32171 15.000002
v -15 60.32173 10.008593
v -13.96188 61.359848 8.970254
v -8.970688 61.359833 13.96188
v -15 60.321747 -10.008593
v -10.008591 60.321747 -15.000002
v -8.9700775 61.359863 -13.96188
v -13.96188 61.359863 -8.9708605
v 15.000002 60.32173 10.008593
v 10.008593 60.32171 15.000002
v 8.970686 61.359833 13.96188
v 13.96188 61.359848 8.970254
v 10.008593 60.321747 -15.000002
v 15.000002 60.321747 -10.008593
v 13.96188 61.359863 -8.9708605
v 8.970079 61.359863 -13.96188
v -9.277573 68.517746 13.234541
v -10.008591 66.752914 14.99938
v 9.277573 68.517746 13.234541
v 10.008593 66.752914 14.99938
v -13.235161 68.517746 9.276951
v -15 66.752914 10.007971
v -13.235161 68.517746 -9.278193
v -15 66.752914 -10.009213
v -9.277573 68.517746 -13.235784
v -10.008591 66.752914 -15.000623
v 9.277573 68.517746 -13.235784
v 10.008593 66.752914 -15.000623
v 13.235163 68.517746 -9.278193
v 15.000002 66.752914 -10.009213
v 13.235163 68.517746 9.276951
v 15.000002 66.752914 10.007971
v 9.3027725 1.5258789E-05 13.296
v 10.008593 1.7040253 15.000002
v 13.296 1.5258789E-05 9.302772
v 15.000002 1.7040253 10.008593
v -9.3027725 1.5258789E-05 13.296
v -10.008591 1.7040253 15.000002
v -13.295998 1.5258789E-05 9.302772
v -15 1.7040253 10.008593
v 13.296 1.5258789E-05 -9.302772
v 15.000002 1.7040253 -10.008593
v 9.3027725 1.5258789E-05 -13.296
v 10.008593 1.7040253 -15.000002
v -9.3027725 1.5258789E-05 -13.296
v -10.008591 1.7040253 -15.000002
v -13.295998 1.5258789E-05 -9.302772
v -15 1.7040253 -10.008593
# 80 vertices

vn 0.045418926 0.9624506 -0.26762995
vn 0.15852208 0.9745482 -0.1585134
vn 0.15852208 0.9745483 -0.1585134
vn 0.08518338 0.9694197 -0.23015042
vn -0.70710665 0 0.70710695
vn -0.70710665 0 0.70710695
vn -0.70710665 0 0.70710695
vn -0.70710665 0 0.70710695
vn -1.0619524E-13 -0.99999994 -7.423617E-08
vn 0 -1 -7.4236304E-08
vn 0 -0.99999994 7.0662304E-07
vn -6.738872E-14 -1 7.066234E-07
vn 0.15857491 0.9745278 0.15858614
vn 0.15857488 0.9745278 0.15858613
vn 0.15857491 0.9745279 0.15858616
vn 0.15857491 0.9745278 0.15858613
vn -0.70710593 0 -0.7071076
vn -0.70710593 0 -0.7071076
vn -0.70710593 0 -0.7071076
vn -0.70710593 0 -0.7071076
vn 0 -1 -1.4847183E-07
vn -1.0619523E-13 -1 -3.7117942E-07
vn -6.738875E-14 -1 1.4132493E-07
vn 0 -1 2.8264932E-07
vn 1.06195116E-13 -1 -6.6812186E-07
vn 0 -1 -4.4541468E-07
vn 0 -1 -2.826489E-07
vn 6.738874E-14 -1 -4.239733E-07
vn 0.70710593 0 -0.7071076
vn 0.70710593 0 -0.7071076
vn 0.70710593 0 -0.7071076
vn 0.70710593 0 -0.7071076
vn -0.15857492 0.9745278 0.15858616
vn -0.15857492 0.9745278 0.15858617
vn -0.15857492 0.9745278 0.15858616
vn -0.15857492 0.9745278 0.15858617
vn -0.15852211 0.9745483 -0.15851343
vn -0.04541896 0.96245074 -0.26762995
vn -0.085183255 0.96941966 -0.2301505
vn -0.1585221 0.97454816 -0.15851341
vn 0.70710665 0 0.70710695
vn 0.70710665 0 0.70710695
vn 0.70710665 0 0.70710695
vn 0.70710665 0 0.70710695
vn 0 -1 -8.1659357E-07
vn 1.0619511E-13 -1 -8.1659334E-07
vn 6.738871E-14 -0.99999994 -7.0662196E-07
vn 0 -0.99999994 -7.066221E-07
vn -0.40825206 -0.8164927 0.40825236
vn -0.4082521 -0.8164927 0.40825233
vn -0.40825206 -0.8164927 0.40825236
vn -0.4082521 -0.8164927 0.40825233
vn 0.40825146 -0.81649274 0.40825295
vn 0.40825146 -0.81649274 0.40825295
vn 0.40825146 -0.81649274 0.40825295
vn 0.40825146 -0.81649274 0.40825295
vn -0.5991109 -0.77997065 -0.18086426
vn -0.408249 -0.8164959 -0.40824893
vn -0.408249 -0.81649595 -0.4082489
vn -0.649796 -0.75306064 -0.10326985
vn 0.40824875 -0.8164964 -0.40824816
vn 0.59911054 -0.7799711 -0.18086357
vn 0.64979553 -0.75306123 -0.103269435
vn 0.40824875 -0.8164964 -0.40824816
vn -0.59909874 0.7799772 0.18087655
vn -0.4082557 0.81649727 0.4082397
vn -0.40825567 0.81649727 0.40823963
vn -0.64979964 0.7530593 0.103257686
vn -0.18088749 0.7799819 -0.59908926
vn -0.40823096 0.816498 -0.40826276
vn -0.40823096 0.81649804 -0.40826282
vn -0.1032492 0.7530575 -0.649803
vn 0.40825504 0.81649727 0.4082402
vn 0.59909815 0.7799776 0.18087675
vn 0.64979905 0.7530598 0.10325798
vn 0.408255 0.8164973 0.40824017
vn 0.40823087 0.81649846 -0.40826204
vn 0.18088754 0.77998215 -0.5990889
vn 0.10324925 0.75305766 -0.64980286
vn 0.4082308 0.81649846 -0.4082621
vn -1 0 0
vn -1 0 0
vn -1 0 0
vn -1 0 0
vn 0 0 -1
vn 0 0 -1
vn 0 0 -1
vn 0 0 -1
vn 1 0 0
vn 1 0 0
vn 1 0 0
vn 1 0 0
vn 0 0 1
vn 0 0 1
vn 0 0 1
vn 0 0 1
vn 0 -0.70710146 0.7071121
vn 0 -0.70710146 0.70711213
vn 0 -0.70710146 0.70711213
vn 0 -0.70710146 0.7071121
vn -0.7071095 -0.707104 -5.476213E-07
vn -0.7071096 -0.707104 -5.4762137E-07
vn -0.5991109 -0.77997065 -0.18086426
vn -0.649796 -0.75306064 -0.10326985
vn 0 -0.7071058 -0.70710766
vn 0 -0.7071059 -0.7071077
vn 0 -0.7071059 -0.70710766
vn 0 -0.7071059 -0.7071077
vn 0.64979553 -0.75306123 -0.103269435
vn 0.59911054 -0.7799711 -0.18086357
vn 0.70710903 -0.70710456 -2.7381046E-07
vn 0.707109 -0.70710456 -2.7381049E-07
vn -0.59909874 0.7799772 0.18087655
vn -0.64979964 0.7530593 0.103257686
vn -0.70710546 0.70710796 5.476227E-07
vn -0.7071055 0.707108 5.4762273E-07
vn 0 0.7071055 0.7071081
vn 0 0.70710546 0.70710796
vn 0 0.7071055 0.707108
vn 0 0.7071056 0.7071081
vn -0.18088749 0.7799819 -0.59908926
vn -0.1032492 0.7530575 -0.649803
vn 0.10324925 0.75305766 -0.64980286
vn 0.18088754 0.77998215 -0.5990889
vn 0.70710504 0.70710856 6.845279E-07
vn 0.707105 0.7071085 6.8452783E-07
vn 0.64979905 0.7530598 0.10325798
vn 0.59909815 0.7799776 0.18087675
vn 0.3094188 0.9509258 1.1896415E-06
vn 0.30941883 0.95092595 1.1896417E-06
vn 0.30941883 0.9509259 1.1896416E-06
vn 0.3094188 0.9509259 1.1896415E-06
vn -6.738872E-14 -1 7.066234E-07
vn -6.738875E-14 -1 1.4132493E-07
vn -1.0619523E-13 -1 -3.7117942E-07
vn -1.0619524E-13 -0.99999994 -7.423617E-08
vn 0 -1 2.8264932E-07
vn 0 -1 -2.826489E-07
vn 0 -1 -4.4541468E-07
vn 0 -1 -1.4847183E-07
vn 0 0.95088875 0.30953282
vn 0 0.95088875 0.30953282
vn 0 0.9508887 0.3095328
vn 0 0.9508887 0.3095328
vn -0.30941838 0.95092607 1.1896399E-06
vn -0.3094184 0.950926 1.18964E-06
vn -0.3094184 0.95092607 1.1896399E-06
vn -0.30941838 0.95092607 1.1896399E-06
vn 6.738874E-14 -1 -4.239733E-07
vn 6.738871E-14 -0.99999994 -7.0662196E-07
vn 1.0619511E-13 -1 -8.1659334E-07
vn 1.06195116E-13 -1 -6.6812186E-07
vn 0.08518338 0.9694197 -0.23015042
vn -0.085183255 0.96941966 -0.2301505
vn -0.04541896 0.96245074 -0.26762995
vn 0.045418926 0.9624506 -0.26762995
vn 0 -0.99999994 -7.066221E-07
vn 0 -0.99999994 7.0662304E-07
vn 0 -1 -7.4236304E-08
vn 0 -1 -8.1659357E-07
vn 0 0.7071093 0.7071043
vn 0 0.7071092 0.7071043
vn 0 0.7071092 0.7071043
vn 0 0.7071093 0.7071044
vn -0.49999976 0.7071089 0.49999723
vn -0.49999973 0.7071089 0.4999972
vn -0.49999976 0.7071089 0.49999723
vn -0.49999976 0.7071089 0.49999723
vn 0.49999905 0.7071086 0.49999845
vn 0.49999905 0.70710856 0.4999984
vn 0.49999905 0.70710856 0.4999984
vn 0.49999905 0.7071086 0.49999845
vn -0.7071052 0.7071084 0
vn -0.70710516 0.7071084 0
vn -0.70710516 0.7071084 0
vn -0.7071052 0.7071084 0
vn -0.4999996 0.707109 -0.49999708
vn -0.4999997 0.7071091 -0.49999717
vn -0.49999964 0.70710903 -0.4999971
vn -0.49999967 0.7071091 -0.4999972
vn 0 0.7071092 -0.7071043
vn 0 0.7071093 -0.7071043
vn 0 0.7071093 -0.7071044
vn 0 0.7071092 -0.7071043
vn 0.4999991 0.70710844 -0.4999985
vn 0.49999914 0.70710844 -0.49999854
vn 0.49999914 0.70710844 -0.49999854
vn 0.4999991 0.70710844 -0.4999985
vn 0.7071052 0.7071084 0
vn 0.70710516 0.7071084 0
vn 0.70710516 0.7071084 0
vn 0.7071052 0.7071084 0
vn 0 1 -4.5592646E-08
vn 0 0.99999994 -4.5592646E-08
vn 0 1 -4.5592646E-08
vn 0 1 -4.5592646E-08
vn 0 1 -4.5592646E-08
vn 0 1 -4.5592646E-08
vn 0 0.99999994 -4.5592646E-08
vn 0 1 -4.5592646E-08
vn -0.70710677 0 0.70710677
vn -0.70710677 0 0.70710677
vn -0.70710677 0 0.70710677
vn -0.70710677 0 0.70710677
vn 0.70710677 0 0.70710677
vn 0.70710677 0 0.70710677
vn 0.70710677 0 0.70710677
vn 0.70710677 0 0.70710677
vn -0.7071065 0 -0.7071071
vn -0.7071065 0 -0.7071071
vn -0.7071065 0 -0.7071071
vn -0.7071065 0 -0.7071071
vn 0.7071065 0 -0.7071071
vn 0.7071065 0 -0.7071071
vn 0.7071065 0 -0.7071071
vn 0.7071065 0 -0.7071071
vn -1 0 0
vn -1 0 0
vn -1 0 0
vn -1 0 0
vn 0 0 -1
vn 0 0 -1
vn 0 0 -1
vn 0 0 -1
vn 1 0 0
vn 1 0 0
vn 1 0 0
vn 1 0 0
vn 0 0 1
vn 0 0 1
vn 0 0 1
vn 0 0 1
vn 0 -0.7071051 0.7071084
vn 0 -0.7071052 0.7071085
vn 0 -0.7071051 0.70710844
vn 0 -0.70710516 0.70710844
vn 0.5000014 -0.707105 0.50000125
vn 0.5000013 -0.70710504 0.5000012
vn 0.5000013 -0.707105 0.5000012
vn 0.5000014 -0.70710504 0.5000012
vn 0.7071083 -0.7071052 0
vn 0.70710826 -0.7071053 0
vn 0.70710826 -0.7071053 0
vn 0.7071083 -0.7071052 0
vn -0.5000015 -0.7071049 0.50000125
vn -0.50000143 -0.7071049 0.50000125
vn -0.5000015 -0.7071049 0.50000125
vn -0.5000015 -0.707105 0.50000125
vn -0.7071085 -0.7071051 0
vn -0.7071085 -0.7071051 0
vn -0.7071085 -0.7071051 0
vn -0.7071085 -0.7071051 0
vn 0.5000014 -0.70710504 -0.5000012
vn 0.5000013 -0.707105 -0.5000012
vn 0.5000013 -0.70710504 -0.5000012
vn 0.5000014 -0.707105 -0.50000125
vn 0 -0.7071052 -0.7071085
vn 0 -0.7071052 -0.70710844
vn 0 -0.70710516 -0.7071084
vn 0 -0.7071051 -0.7071084
vn -0.50000143 -0.7071049 -0.50000125
vn -0.5000015 -0.7071049 -0.50000125
vn -0.5000015 -0.707105 -0.50000125
vn -0.5000015 -0.7071049 -0.50000125
vn 0 -1 0
vn 0 -0.99999994 0
vn 0 -0.99999994 0
vn 0 -1 0
vn -0.70710695 0 0.7071067
vn -0.7071069 0 0.70710665
vn -0.7071069 0 0.7071067
vn -0.7071069 0 0.7071067
vn -0.70710677 0 -0.70710677
vn -0.70710677 0 -0.70710677
vn -0.70710677 0 -0.70710677
vn -0.70710677 0 -0.70710677
vn 0.7071069 0 0.70710665
vn 0.70710695 0 0.7071067
vn 0.7071069 0 0.7071067
vn 0.7071069 0 0.7071067
vn 0.70710677 0 -0.70710677
vn 0.70710677 0 -0.70710677
vn 0.70710677 0 -0.70710677
vn 0.70710677 0 -0.70710677
vn 0 0 1
vn 0 0 1
vn 0 0 1
vn 0 0 1
vn 0 0 -1
vn 0 0 -1
vn 0 0 -1
vn 0 0 -1
vn 1 0 0
vn 1 0 0
vn 1 0 0
vn 1 0 0
vn -1 0 0
vn -1 0 0
vn -1 0 0
vn -1 0 0
vn 0 -1 0
vn 0 -1 0
vn 0 -1 0
vn 0 -1 0
vn 0 -0.99999994 0
vn 0 -0.99999994 0
vn 0 -1 0
vn 0 -1 0
# 308 vertex normals

vt 0.9870812 0.82303905 0
vt 0.9870812 0.97736907 0
vt 0.95876753 0.98174584 0
vt 0.9587684 0.8186664 0
vt 0.9448899 0.823039 0
vt 0.9448899 0.97736907 0
vt 0.9448899 0.818665 0
vt 0.9448899 0.981743 0
vt 0.98707986 0.82303905 0
vt 0.98707986 0.7530916 0
vt 0.95876646 0.7574654 0
vt 0.95876646 0.8186667 0
vt 0.94488907 0.82303894 0
vt 0.94488907 0.75309145 0
vt 0.94488907 0.8192823 0
vt 0.94488907 0.7580825 0
vt 0.944889 0.97736895 0
vt 0.944889 0.9817431 0
vt 0.9870799 0.97736907 0
vt 0.9587665 0.9817413 0
vt 0.9870811 0.82303905 0
vt 0.98708105 0.97736895 0
vt 0.95876837 0.9817416 0
vt 0.9587675 0.81866205 0
vt 0.9448898 0.823039 0
vt 0.9448898 0.97736907 0
vt 0.9448898 0.8186651 0
vt 0.9448898 0.981743 0
vt 0.8839408 0.8161926 0
vt 0.8839408 0.75993776 0
vt 0.8839408 0.8161926 0
vt 0.8839408 0.75993776 0
vt 0.88394076 0.8168098 0
vt 0.88394064 0.7605549 0
vt 0.88394105 0.81619275 0
vt 0.88394105 0.75993776 0
vt 0.5385263 0.8129112 0
vt 0.64213973 0.81619257 0
vt 0.6421396 0.98421526 0
vt 0.5385263 0.7632193 0
vt 0.53852624 0.7632193 0
vt 0.64213955 0.9842153 0
vt 0.6421396 0.8161927 0
vt 0.53852624 0.8129112 0
vt 0.53852636 0.8129111 0
vt 0.64213973 0.81619257 0
vt 0.53852636 0.7632193 0
vt 0.64213973 0.7599378 0
vt 0.5385267 0.8129112 0
vt 0.5385267 0.7632193 0
vt 0.64213973 0.98421526 0
vt 0.54205585 0.72289634 0
vt 0.54205585 0.5891118 0
vt 0.5133424 0.7516099 0
vt 0.5133424 0.5603981 0
vt 0.35084403 0.72289634 0
vt 0.37955767 0.7516099 0
vt 0.37955767 0.5603981 0
vt 0.58277065 0.7562009 0
vt 0.55345595 0.7268865 0
vt 0.55345595 0.5894451 0
vt 0.58277065 0.5601305 0
vt 0.7202117 0.5601305 0
vt 0.7495263 0.5894451 0
vt 0.7495263 0.7268865 0
vt 0.7202117 0.7562009 0
vt 0.9892226 0.5993421 0
vt 0.81574893 0.22369361 0
vt 0.9440223 0.223701 0
vt 0.94400007 0.5993334 0
vt 0.9439877 0.5993364 0
vt 0.9440348 0.2237041 0
vt 0.98474854 0.20826662 0
vt 0.9395004 0.20825863 0
vt 0.98923486 0.59933615 0
vt 0.9892572 0.22370386 0
vt 0.93734956 0.6087408 0
vt 0.82238007 0.60873425 0
vt 0.94855976 0.2082622 0
vt 0.98473495 0.20826113 0
vt 0.9892448 0.59933376 0
vt 0.8157345 0.22370207 0
vt 0.944008 0.22369969 0
vt 0.9440147 0.59933174 0
vt 0.9440096 0.59933305 0
vt 0.94401366 0.22369814 0
vt 0.93948466 0.2082572 0
vt 0.9847259 0.20825577 0
vt 0.98924947 0.5993308 0
vt 0.98924273 0.22369885 0
vt 0.93736106 0.60873985 0
vt 0.8223914 0.6087421 0
vt 0.93949074 0.20825541 0
vt 0.98471934 0.20825648 0
vt 0.82236403 0.6087291 0
vt 0.94401395 0.610855 0
vt 0.94398725 0.6108577 0
vt 0.9892223 0.61086524 0
vt 0.98924273 0.6108546 0
vt 0.94400775 0.610857 0
vt 0.8223901 0.60874 0
vt 0.94400114 0.6108544 0
vt 0.8157615 0.22368813 0
vt 0.93951374 0.20826101 0
vt 0.82028633 0.20824611 0
vt 0.8157393 0.22369683 0
vt 0.8202623 0.20825422 0
vt 0.9892486 0.22369862 0
vt 0.81574124 0.59933436 0
vt 0.82025725 0.20825934 0
vt 0.81573516 0.59933186 0
vt 0.98923594 0.61086 0
vt 0.93733543 0.60874367 0
vt 0.93735456 0.60874116 0
vt 0.8157143 0.5993202 0
vt 0.9892486 0.6108525 0
vt 0.9485369 0.20825553 0
vt 0.9485306 0.20825708 0
vt 0.94854647 0.20825899 0
vt 0.82027286 0.20825136 0
vt 0.98926973 0.2237097 0
vt 0.81572676 0.5993258 0
vt 0.35084403 0.5891118 0
vt 0.9448897 0.97736895 0
vt 0.98708045 0.82303905 0
vt 0.94488966 0.818665 0
vt 0.9448897 0.98174286 0
vt 0.94488966 0.82303894 0
vt 0.9587672 0.81866515 0
vt 0.9587673 0.9817431 0
vt 0.9870805 0.97736907 0
vt 0.53852665 0.98749685 0
vt 0.64214027 0.98421526 0
vt 0.6421403 0.8161927 0
vt 0.88394123 0.9842153 0
vt 0.64213955 0.7599378 0
vt 0.8839408 0.9842155 0
vt 0.53852624 0.98749685 0
vt 0.9448899 0.7574655 0
vt 0.9448899 0.7530915 0
vt 0.9870812 0.7530916 0
vt 0.95876753 0.75746834 0
vt 0.6421396 0.7599377 0
vt 0.8839408 0.98421526 0
vt 0.5385263 0.987497 0
vt 0.9448898 0.75746536 0
vt 0.9448898 0.75309145 0
vt 0.98708105 0.75309134 0
vt 0.95876837 0.75746405 0
vt 0.6421403 0.7599377 0
vt 0.8839407 0.9842153 0
vt 0.53852636 0.98749685 0
vt 0.9448897 0.7574655 0
vt 0.9870805 0.7530916 0
vt 0.95876724 0.7574637 0
vt 0.9448897 0.75309145 0
# 156 texture coords

usemtl lambert1
s 1
f 1/1/1 2/141/2 35/142/3 36/4/4
f 2/141/5 1/1/6 4/5/7 3/140/8
f 3/140/9 4/5/10 19/7/11 20/139/12
f 5/9/13 6/10/14 39/11/15 40/12/16
f 6/10/17 5/9/18 8/13/19 7/14/20
f 7/14/21 8/13/22 27/15/23 28/16/24
f 9/156/25 10/128/26 31/126/27 32/153/28
f 10/128/29 9/156/30 12/154/31 11/125/32
f 11/125/33 12/154/34 47/155/35 48/129/36
f 13/21/37 14/148/38 43/149/39 44/24/40
f 14/148/41 13/21/42 16/25/43 15/147/44
f 15/147/45 16/25/46 23/27/47 24/146/48
f 18/29/49 17/30/50 20/139/51 19/7/52
f 22/31/53 21/32/54 24/146/55 23/27/56
f 26/33/57 25/34/58 28/16/59 27/15/60
f 30/35/61 29/36/62 32/153/63 31/126/64
f 34/84/65 33/89/66 36/116/67 35/96/68
f 38/85/69 37/81/70 40/99/71 39/100/72
f 42/71/73 41/67/74 44/98/75 43/97/76
f 46/70/77 45/75/78 48/112/79 47/102/80
f 5/9/81 2/2/82 3/6/83 8/13/84
f 7/124/85 10/128/86 11/125/87 6/131/88
f 13/21/89 12/19/90 9/17/91 16/25/92
f 1/1/93 14/22/94 15/26/95 4/5/96
f 18/29/97 19/7/98 24/28/99 21/144/100
f 20/8/101 17/137/102 26/33/103 27/15/104
f 28/127/105 25/135/106 30/35/107 31/126/108
f 32/18/109 29/151/110 22/31/111 23/27/112
f 34/84/113 35/91/114 40/92/115 37/109/116
f 36/95/117 33/115/118 42/71/119 43/113/120
f 38/85/121 39/114/122 48/101/123 45/111/124
f 46/70/125 47/77/126 44/78/127 41/122/128
f 40/12/129 35/3/130 2/2/131 5/9/132
f 20/8/133 27/15/134 8/13/135 3/6/136
f 28/127/137 31/126/138 10/128/139 7/124/140
f 48/129/141 39/130/142 6/131/143 11/125/144
f 44/24/145 47/20/146 12/19/147 13/21/148
f 32/18/149 23/27/150 16/25/151 9/17/152
f 36/4/153 43/23/154 14/22/155 1/1/156
f 24/28/157 19/7/158 4/5/159 15/26/160
f 49/37/161 50/38/162 52/39/163 51/145/164
f 50/38/165 49/37/166 53/41/167 54/136/168
f 51/40/169 52/143/170 64/43/171 63/44/172
f 54/42/173 53/138/174 55/45/175 56/46/176
f 56/46/177 55/45/178 57/47/179 58/48/180
f 58/133/181 57/132/182 59/49/183 60/134/184
f 60/134/185 59/49/186 61/50/187 62/150/188
f 62/51/189 61/152/190 63/44/191 64/43/192
f 53/59/193 49/60/194 51/61/195 63/62/196 61/63/197 59/64/198 57/65/199 55/66/200
f 17/30/201 18/29/202 50/38/203 54/136/204
f 21/32/205 22/31/206 64/43/207 52/143/208
f 25/34/209 26/33/210 56/46/211 58/48/212
f 29/36/213 30/35/214 60/134/215 62/150/216
f 26/33/217 17/137/218 54/42/219 56/46/220
f 25/135/221 58/133/222 60/134/223 30/35/224
f 22/31/225 29/151/226 62/51/227 64/43/228
f 18/29/229 21/144/230 52/39/231 50/38/232
f 65/104/233 66/72/234 70/103/235 69/105/236
f 66/72/237 65/79/238 67/73/239 68/121/240
f 68/68/241 67/120/242 73/74/243 74/69/244
f 69/94/245 70/90/246 72/83/247 71/118/248
f 71/87/249 72/83/250 80/82/251 79/110/252
f 74/69/253 73/119/254 75/80/255 76/76/256
f 76/106/257 75/107/258 77/93/259 78/86/260
f 78/86/261 77/117/262 79/88/263 80/108/264
f 79/123/265 77/58/266 69/57/267 71/56/268
f 33/89/269 34/84/270 72/83/271 70/90/272
f 37/81/273 38/85/274 78/86/275 80/108/276
f 41/67/277 42/71/278 66/72/279 68/121/280
f 45/75/281 46/70/282 74/69/283 76/76/284
f 33/115/285 70/103/286 66/72/287 42/71/288
f 38/85/289 45/111/290 76/106/291 78/86/292
f 41/122/293 68/68/294 74/69/295 46/70/296
f 37/109/297 80/82/298 72/83/299 34/84/300
f 65/54/301 75/55/302 73/53/303 67/52/304
f 69/57/305 77/58/306 75/55/307 65/54/308
#76 polygons

